<?xml version="1.0" encoding="UTF-8" ?>
<!DOCTYPE svg PUBLIC "-//W3C//DTD SVG 1.1//EN" "http://www.w3.org/Graphics/SVG/1.1/DTD/svg11.dtd">
<svg width="100pt" height="100pt" viewBox="0 0 100 100" version="1.1" xmlns="http://www.w3.org/2000/svg">
<g id="#000000ff">
<path fill="#000000" opacity="1.00" d=" M 12.64 17.65 C 16.57 16.10 20.89 16.47 25.02 16.37 C 29.98 16.48 34.99 16.01 39.89 16.85 C 44.16 18.19 46.71 22.28 50.61 24.28 C 52.26 24.97 54.10 25.01 55.86 25.12 C 64.28 25.31 72.71 24.64 81.13 24.94 C 84.05 25.13 87.40 25.25 89.60 27.45 C 91.33 29.53 91.57 32.37 91.77 34.96 C 92.08 41.97 91.60 48.99 91.71 56.00 C 91.64 62.32 92.23 68.65 91.62 74.96 C 91.29 77.59 90.69 80.81 88.00 82.05 C 84.58 83.64 80.71 83.56 77.02 83.63 C 57.98 83.33 38.93 83.53 19.90 83.57 C 16.27 83.29 11.44 83.26 9.52 79.55 C 8.00 75.93 8.15 71.89 8.11 68.03 C 8.34 57.70 8.31 47.35 8.20 37.01 C 8.17 32.23 7.82 27.38 8.79 22.66 C 9.19 20.50 10.46 18.38 12.64 17.65 Z" />
</g>
</svg>
