<?xml version="1.0" encoding="UTF-8" ?>
<!DOCTYPE svg PUBLIC "-//W3C//DTD SVG 1.1//EN" "http://www.w3.org/Graphics/SVG/1.1/DTD/svg11.dtd">
<svg width="350pt" height="336pt" viewBox="0 0 350 336" version="1.1" xmlns="http://www.w3.org/2000/svg">
<g id="#55bb19ff">
<path fill="#55bb19" opacity="1.00" d=" M 104.81 20.96 C 118.97 14.52 134.50 11.28 150.02 10.85 C 170.96 9.93 192.41 15.29 209.67 27.39 C 222.38 36.53 233.68 47.91 241.58 61.50 C 247.48 70.75 251.26 81.15 254.09 91.69 C 260.77 117.99 257.97 146.14 248.27 171.33 C 245.56 179.20 241.57 186.55 237.76 193.93 C 234.37 200.58 229.59 206.34 225.35 212.45 C 221.34 218.31 215.94 222.99 211.30 228.32 C 207.72 232.42 203.20 235.50 199.19 239.14 C 190.98 246.79 181.93 253.58 172.08 258.99 C 159.25 267.04 145.13 272.76 130.80 277.56 C 125.07 279.19 119.28 280.65 113.85 283.14 C 95.20 284.78 76.13 282.66 58.42 276.55 C 54.26 275.20 50.54 272.88 47.15 270.16 C 49.61 270.52 52.09 270.83 54.55 271.24 C 67.48 273.20 80.67 272.11 93.47 269.74 C 114.42 266.26 134.18 257.50 151.95 246.04 C 158.19 242.36 163.33 237.19 169.19 232.98 C 173.19 230.12 176.33 226.28 179.43 222.51 C 190.58 209.23 200.14 194.43 206.43 178.22 C 213.00 162.37 216.04 145.16 215.99 128.03 C 215.88 121.05 214.96 114.09 213.51 107.26 C 212.06 100.32 209.32 93.74 206.80 87.13 C 193.19 94.13 180.52 102.80 166.93 109.85 C 162.99 102.89 159.76 95.51 154.99 89.04 C 150.91 82.90 145.45 77.89 139.92 73.10 C 123.08 57.99 100.81 48.25 77.98 48.59 C 72.00 48.61 66.17 50.12 60.22 50.49 C 65.99 43.63 74.09 39.48 81.09 34.08 C 88.27 28.48 96.81 25.15 104.81 20.96 Z" />
<path fill="#55bb19" opacity="1.00" d=" M 22.09 102.11 C 23.00 100.08 23.93 98.05 24.88 96.03 C 23.94 98.05 23.00 100.08 22.09 102.11 Z" />
<path fill="#55bb19" opacity="1.00" d=" M 16.37 116.74 C 14.65 115.63 16.00 111.69 18.08 112.42 C 17.70 113.93 17.11 115.37 16.37 116.74 Z" />
<path fill="#55bb19" opacity="1.00" d=" M 12.34 130.76 C 10.69 130.18 11.47 127.03 13.22 127.44 C 13.27 128.62 12.94 129.76 12.34 130.76 Z" />
<path fill="#55bb19" opacity="1.00" d=" M 9.45 146.07 C 7.90 145.18 8.16 141.64 10.11 141.52 C 10.14 143.06 9.88 144.59 9.45 146.07 Z" />
<path fill="#55bb19" opacity="1.00" d=" M 8.48 152.71 C 6.88 151.80 7.26 148.31 9.17 148.09 C 9.15 149.65 8.90 151.20 8.48 152.71 Z" />
<path fill="#55bb19" opacity="1.00" d=" M 8.46 182.28 C 8.87 184.00 9.12 185.76 9.05 187.53 C 6.98 187.36 6.91 183.34 8.46 182.28 Z" />
<path fill="#55bb19" opacity="1.00" d=" M 97.87 239.75 C 101.41 236.93 105.20 234.45 109.05 232.07 C 105.94 235.43 102.06 237.95 97.87 239.75 Z" />
<path fill="#55bb19" opacity="1.00" d=" M 26.94 244.09 C 28.72 244.13 30.49 244.18 32.27 244.25 C 31.06 244.45 29.84 244.66 28.63 244.89 C 29.36 246.63 30.07 248.38 30.89 250.09 C 29.56 248.10 28.25 246.09 26.94 244.09 Z" />
<path fill="#55bb19" opacity="1.00" d=" M 31.23 250.73 C 32.78 253.20 34.43 255.61 35.96 258.10 C 34.00 255.91 32.34 253.46 31.23 250.73 Z" />
</g>
<g id="#f6d307ff">
<path fill="#f6d307" opacity="1.00" d=" M 37.77 76.75 C 48.91 65.33 65.00 58.80 80.97 59.56 C 84.96 59.68 88.93 60.17 92.91 60.56 C 92.62 76.16 93.23 91.76 92.71 107.36 C 87.23 106.66 81.87 104.81 76.31 104.89 C 74.18 107.38 74.69 110.92 74.51 113.96 C 74.78 125.31 74.56 136.65 74.73 148.00 C 74.82 153.03 74.38 158.06 73.94 163.07 C 73.66 165.76 74.29 168.42 74.73 171.06 C 76.55 180.18 74.77 189.69 71.14 198.14 C 66.59 208.96 59.31 218.86 49.54 225.50 C 44.65 228.70 38.97 231.11 33.05 231.05 C 27.35 231.04 21.92 227.89 18.71 223.25 C 14.95 217.91 13.52 211.41 11.93 205.18 C 10.57 199.38 9.04 193.53 9.05 187.53 C 9.12 185.76 8.87 184.00 8.46 182.28 C 7.56 177.24 7.72 172.10 7.66 167.00 C 7.75 162.23 7.57 157.41 8.48 152.71 C 8.90 151.20 9.15 149.65 9.17 148.09 C 9.24 147.58 9.38 146.57 9.45 146.07 C 9.88 144.59 10.14 143.06 10.11 141.52 C 10.28 137.85 10.88 134.14 12.34 130.76 C 12.94 129.76 13.27 128.62 13.22 127.44 C 13.57 123.72 14.79 120.11 16.37 116.74 C 17.11 115.37 17.70 113.93 18.08 112.42 C 19.11 108.88 20.61 105.49 22.09 102.11 C 23.00 100.08 23.94 98.05 24.88 96.03 C 28.37 89.13 31.91 81.99 37.77 76.75 Z" />
<path fill="#f6d307" opacity="1.00" d=" M 51.84 240.71 C 68.04 235.64 82.78 226.40 94.89 214.56 C 95.57 214.79 96.92 215.24 97.59 215.47 C 97.88 223.70 97.86 231.95 97.32 240.18 C 88.55 245.30 79.40 249.87 69.59 252.64 C 58.76 256.29 47.32 257.52 35.96 258.10 C 34.43 255.61 32.78 253.20 31.23 250.73 L 30.89 250.09 C 30.07 248.38 29.36 246.63 28.63 244.89 C 29.84 244.66 31.06 244.45 32.27 244.25 C 38.81 243.19 45.49 242.74 51.84 240.71 Z" />
</g>
<g id="#ea9610ff">
<path fill="#ea9610" opacity="1.00" d=" M 92.71 107.36 C 93.23 91.76 92.62 76.16 92.91 60.56 C 99.10 62.18 105.13 64.37 111.04 66.81 C 123.84 72.41 134.85 81.47 143.94 91.99 C 148.72 97.90 152.24 104.69 155.49 111.53 C 161.70 124.59 162.61 139.62 160.35 153.75 C 157.47 169.83 151.03 185.28 141.51 198.55 C 139.28 201.71 137.16 204.95 134.80 208.02 C 131.67 212.11 127.75 215.49 124.20 219.20 C 119.59 223.97 114.61 228.43 109.05 232.07 C 105.20 234.45 101.41 236.93 97.87 239.75 L 97.32 240.18 C 97.86 231.95 97.88 223.70 97.59 215.47 C 96.92 215.24 95.57 214.79 94.89 214.56 C 99.57 209.05 104.43 203.63 108.32 197.51 C 112.58 190.17 116.33 182.41 118.20 174.07 C 121.28 162.30 120.96 149.88 118.56 138.02 C 109.48 142.61 100.88 148.08 92.02 153.09 C 86.01 156.44 80.25 160.27 73.94 163.07 C 74.38 158.06 74.82 153.03 74.73 148.00 C 74.56 136.65 74.78 125.31 74.51 113.96 C 74.69 110.92 74.18 107.38 76.31 104.89 C 81.87 104.81 87.23 106.66 92.71 107.36 Z" />
</g>
<g id="#3d9bd7ff">
<path fill="#3d9bd7" opacity="1.00" d=" M 315.39 134.10 C 316.68 129.38 317.83 124.63 319.28 119.96 C 323.97 134.83 325.85 150.45 326.29 166.00 C 326.22 183.47 323.56 200.99 317.82 217.53 C 314.96 227.30 310.82 236.67 305.57 245.39 C 302.20 251.31 298.90 257.32 294.51 262.57 C 290.53 267.26 287.00 272.35 282.57 276.64 C 279.56 279.58 276.57 282.55 273.62 285.56 C 267.81 291.53 260.98 296.38 254.04 300.95 C 210.76 329.42 153.17 334.94 105.49 314.47 C 88.13 306.57 71.48 296.59 57.74 283.24 C 53.03 278.75 48.55 274.03 44.34 269.07 C 45.15 269.32 45.96 269.59 46.77 269.87 L 47.15 270.16 C 50.54 272.88 54.26 275.20 58.42 276.55 C 76.13 282.66 95.20 284.78 113.85 283.14 C 127.23 283.10 140.48 280.74 153.50 277.79 C 167.16 274.70 180.36 269.88 193.23 264.41 C 222.44 251.73 249.07 233.11 270.96 209.97 C 279.82 201.27 287.62 191.47 293.84 180.71 C 303.06 166.23 310.62 150.62 315.39 134.10 Z" />
</g>
</svg>
